<svg id="Capa_1" data-name="Capa 1" xmlns="http://www.w3.org/2000/svg" viewBox="0 0 57.28 59.41"><defs><style>.cls-1{fill:#e3d751;}.cls-2{fill:#337abd;}.cls-3{fill:#e32c4c;}</style></defs><title>campana</title><path class="cls-1" d="M50,48.42l-.09-.13-.55-.83c-.39-.58-.79-1.18-1.17-1.78a13.07,13.07,0,0,1-2.37-6.33c-.2-2.43-.38-4.9-.56-7.29-.23-3.27-.48-4.94-.78-8.26-.6-6.57-4-11.24-10.24-13.89-.39-.16-.8-.3-1.19-.44l-.45-.15c1.92-3,1.74-5.91-.49-7.89a5.61,5.61,0,0,0-7.31-.1c-2.35,2-2.56,4.82-.6,8L24,9.39l-.5.15A16.19,16.19,0,0,0,12.28,23.4l-.36,4.94c-.19,2.5-.38,3.37-.58,5.91l-.07.78c-.16,2-.32,4.08-.64,6.09-.46,3-2.15,4.83-3.78,7.17l-.06.09a1.46,1.46,0,0,0-.33,1.67,1.2,1.2,0,0,0,1.2.59H48.84c.51,0,1.09,0,1.42-.58A1.45,1.45,0,0,0,50,48.42Zm-3-.16H9.73l0-.1a4,4,0,0,1,.22-.37,17.72,17.72,0,0,0,3.41-9.66c.37-5.6.81-9.58,1.19-14.48a13.82,13.82,0,0,1,25-6.7c1.62,2.25,2.45,4.94,2.68,8.71s.53,5.76.81,9.41c.11,1.36.21,2.72.32,4.08a16.49,16.49,0,0,0,3.14,8.39l.33.52ZM25.13,5.42a3.24,3.24,0,0,1,3.23-3.06h.12a3.19,3.19,0,0,1,3.11,3.29,3.3,3.3,0,0,1-1,2.29,3.14,3.14,0,0,1-2.31.87A3.25,3.25,0,0,1,26,7.77,3.3,3.3,0,0,1,25.13,5.42Z" transform="translate(0.28 -0.03)"/><path class="cls-2" d="M57,25.91v-.17a29.29,29.29,0,0,0-1.39-8.22,25.59,25.59,0,0,0-8.7-12.69,1.6,1.6,0,0,0-1.15-.39,1,1,0,0,0-.73.44c-.44.58-.29,1.22.4,1.76a23.7,23.7,0,0,1,8.72,14.69,32.13,32.13,0,0,1,.42,3.78c0,.48.06,1,.1,1.44.07.8.45,1.21,1.13,1.24h.07a1.12,1.12,0,0,0,.78-.27,1.23,1.23,0,0,0,.34-.89C57,26.36,57,26.1,57,25.91Z" transform="translate(0.28 -0.03)"/><path class="cls-2" d="M2.05,25.8A25.16,25.16,0,0,1,8.52,9.19a24.9,24.9,0,0,1,2.06-1.92l.78-.68c.63-.56.74-1.16.33-1.71a1.2,1.2,0,0,0-1.75-.14A4.39,4.39,0,0,0,9.58,5l0,0C3.48,10,.27,16.66-.28,25.47h0v.38c0,.28,0,.57,0,.86a1.06,1.06,0,0,0,1.1,1.07H.9A1.07,1.07,0,0,0,2,26.8a3.66,3.66,0,0,0,0-.66C2.05,26,2,25.91,2.05,25.8Z" transform="translate(0.28 -0.03)"/><path class="cls-2" d="M17.66,7.57a1.66,1.66,0,0,0-1.23.35A22,22,0,0,0,6.32,25.42v.75a1.63,1.63,0,0,0,.4,1.18,1,1,0,0,0,.75.29h0c.68,0,1.12-.55,1.15-1.4A19.67,19.67,0,0,1,17.71,9.87c.8-.55,1-1.14.64-1.76A1.11,1.11,0,0,0,17.66,7.57Z" transform="translate(0.28 -0.03)"/><path class="cls-2" d="M50.4,25.45h0A21.6,21.6,0,0,0,44,11a28.85,28.85,0,0,0-3.33-2.72l-.65-.48a1.19,1.19,0,0,0-1-.25,1.13,1.13,0,0,0-.73.58,1.14,1.14,0,0,0,.45,1.62l.31.2.38.25a19.46,19.46,0,0,1,8.15,12.23,23.21,23.21,0,0,1,.35,3c0,.33,0,.67.08,1,.07.77.48,1.2,1.17,1.2h0A1.1,1.1,0,0,0,50.4,26.4q0-.3,0-.63Z" transform="translate(0.28 -0.03)"/><path class="cls-3" d="M32.86,52.73c-.72-.06-1.18.41-1.27,1.28a3.23,3.23,0,0,1-6.46,0c-.09-.89-.54-1.35-1.23-1.31s-1.11.55-1.08,1.44a5.49,5.49,0,0,0,5.53,5.26h0A5.54,5.54,0,0,0,33.9,54.2C33.93,53.31,33.56,52.79,32.86,52.73Z" transform="translate(0.28 -0.03)"/></svg>