<svg id="Capa_1" data-name="Capa 1" xmlns="http://www.w3.org/2000/svg" viewBox="0 0 381.6 381.6"><defs><style>.cls-1{fill:#e3d751;}.cls-2{fill:#e32c4c;}.cls-3{fill:#337abd;}</style></defs><title>carita</title><path class="cls-1" d="M205.2,398.65c-105.21,0-190.8-85.59-190.8-190.8S100,17.05,205.2,17.05,396,102.64,396,207.85,310.41,398.65,205.2,398.65Zm0-366.92c-97.12,0-176.13,79-176.13,176.12S108.08,384,205.2,384s176.12-79,176.12-176.13S302.31,31.73,205.2,31.73Z" transform="translate(-14.4 -17.05)"/><path class="cls-2" d="M205.2,297.41a112.08,112.08,0,0,1-96.7-55.81l12.71-7.35a97,97,0,0,0,168,0l12.7,7.35A112,112,0,0,1,205.2,297.41Z" transform="translate(-14.4 -17.05)"/><path class="cls-3" d="M181.43,163.5H166.76a30.54,30.54,0,0,0-61.07,0H91a45.21,45.21,0,1,1,90.41,0Z" transform="translate(-14.4 -17.05)"/><path class="cls-3" d="M319.38,163.5H304.7a30.53,30.53,0,1,0-61.06,0H229a45.21,45.21,0,1,1,90.42,0Z" transform="translate(-14.4 -17.05)"/></svg>