<?xml version="1.0" encoding="utf-8"?>
<!-- Generator: Adobe Illustrator 24.0.2, SVG Export Plug-In . SVG Version: 6.00 Build 0)  -->
<svg version="1.1" id="Capa_1" xmlns="http://www.w3.org/2000/svg" xmlns:xlink="http://www.w3.org/1999/xlink" x="0px" y="0px"
	 viewBox="0 0 132 37" style="enable-background:new 0 0 132 37;" xml:space="preserve">
<style type="text/css">
	.st0{fill:#E32C4C;}
	.st1{fill:#E3D751;}
	.st2{fill:#337ABD;}
</style>
<g>
	<g>
		<path d="M67.08,22.83H54.37l-2.51,5.88h-4.87L58.43,3.29h4.65l11.48,25.43h-4.94L67.08,22.83z M65.52,19.12l-4.8-11.12
			l-4.76,11.12H65.52z"/>
		<path d="M98.86,1.76v26.95h-4.36v-2.51c-2.62,3.3-8,3.44-11.46,1.53c-3.14-1.73-4.8-5.05-4.78-8.72
			c-0.03-3.68,1.64-6.95,4.78-8.68c3.39-1.88,8.63-1.79,11.28,1.38V1.76H98.86z M91.56,24.34c6.3-4.16,1.36-14.34-5.88-10.64
			C79.38,17.85,84.31,28.03,91.56,24.34z"/>
		<path d="M118.73,9.1v4.32c-9.25-1.16-6.17,9.68-6.68,15.29h-4.54V9.32h4.32v2.83C113.14,10.11,115.44,9.1,118.73,9.1z"/>
		<path d="M125.49,5.34c-2.69-2.76,1.48-6.28,4.14-3.92C132.33,4.12,128.12,7.8,125.49,5.34z M125.27,9.32h4.54v19.4h-4.54V9.32z"/>
	</g>
	<g>
		<path d="M48,35.99c-0.31-0.17-0.56-0.41-0.74-0.72c-0.18-0.31-0.27-0.65-0.27-1.03c0-0.38,0.09-0.73,0.27-1.03
			c0.18-0.31,0.43-0.55,0.74-0.72c0.31-0.17,0.66-0.26,1.05-0.26c0.29,0,0.55,0.05,0.79,0.14c0.24,0.09,0.45,0.23,0.62,0.41
			l-0.18,0.19c-0.32-0.31-0.72-0.47-1.22-0.47c-0.33,0-0.63,0.08-0.91,0.23c-0.27,0.15-0.49,0.36-0.64,0.63
			c-0.15,0.27-0.23,0.56-0.23,0.89c0,0.33,0.08,0.63,0.23,0.89c0.15,0.27,0.37,0.48,0.64,0.63c0.27,0.15,0.57,0.23,0.91,0.23
			c0.49,0,0.9-0.16,1.22-0.48l0.18,0.19c-0.17,0.18-0.38,0.32-0.62,0.41c-0.24,0.09-0.51,0.14-0.79,0.14
			C48.66,36.25,48.31,36.16,48,35.99z"/>
		<path d="M61.72,35.96v0.26h-2.74v-3.97h2.65v0.26h-2.36v1.56h2.11v0.26h-2.11v1.63H61.72z"/>
		<path d="M73.09,36.22l-0.95-1.33c-0.14,0.02-0.27,0.03-0.39,0.03h-1.13v1.3h-0.29v-3.97h1.42c0.5,0,0.89,0.12,1.17,0.35
			c0.28,0.24,0.43,0.56,0.43,0.98c0,0.31-0.08,0.58-0.24,0.79c-0.16,0.21-0.39,0.36-0.69,0.45l0.99,1.39H73.09z M71.75,34.67
			c0.42,0,0.75-0.09,0.97-0.28c0.22-0.19,0.33-0.45,0.33-0.8c0-0.34-0.11-0.61-0.33-0.8c-0.22-0.19-0.55-0.28-0.97-0.28h-1.13v2.15
			H71.75z"/>
		<path d="M84.42,35.11h-2.3l-0.5,1.12H81.3l1.82-3.97h0.29l1.82,3.97h-0.31L84.42,35.11z M84.31,34.86l-1.04-2.29l-1.04,2.29H84.31
			z M83.74,31.26h0.41l-0.89,0.67h-0.31L83.74,31.26z"/>
		<path d="M97.27,36.22l-0.01-3.39l-1.66,2.87h-0.14l-1.66-2.86v3.38h-0.28v-3.97h0.24l1.77,3.07l1.77-3.07h0.24l0.01,3.97H97.27z"
			/>
		<path d="M106.49,32.25h0.29v3.97h-0.29V32.25z"/>
		<path d="M116.34,35.99c-0.31-0.17-0.56-0.41-0.74-0.72c-0.18-0.31-0.27-0.65-0.27-1.03c0-0.38,0.09-0.73,0.27-1.03
			c0.18-0.31,0.43-0.55,0.74-0.72c0.31-0.17,0.66-0.26,1.05-0.26c0.29,0,0.55,0.05,0.79,0.14c0.24,0.09,0.45,0.23,0.62,0.41
			l-0.18,0.19c-0.32-0.31-0.72-0.47-1.22-0.47c-0.33,0-0.63,0.08-0.91,0.23c-0.27,0.15-0.49,0.36-0.64,0.63
			c-0.15,0.27-0.23,0.56-0.23,0.89c0,0.33,0.08,0.63,0.23,0.89c0.15,0.27,0.37,0.48,0.64,0.63c0.27,0.15,0.57,0.23,0.91,0.23
			c0.49,0,0.9-0.16,1.22-0.48l0.18,0.19c-0.17,0.18-0.38,0.32-0.62,0.41c-0.24,0.09-0.51,0.14-0.79,0.14
			C117.01,36.25,116.66,36.16,116.34,35.99z"/>
		<path d="M129.68,35.11h-2.3l-0.5,1.12h-0.31l1.83-3.97h0.29l1.83,3.97h-0.31L129.68,35.11z M129.57,34.86l-1.04-2.29l-1.04,2.29
			H129.57z"/>
	</g>
	<g>
		<g>
			<path class="st0" d="M15.38,31.95c0.3,0.31,0.08,0.82-0.34,0.82h-0.32c-0.85,0-1.59,0.48-1.97,1.18
				c-0.09,0.16-0.26,0.26-0.45,0.25l-7.39-0.42c-2.2-0.17-3.21-3.19-2.01-5.04l2.36-3.63c0.56-0.87,1.54-1.37,2.57-1.32l0,0
				c1.15,0.05,2.18,0.72,2.68,1.76C11.39,27.39,12.95,29.46,15.38,31.95z"/>
			<path class="st0" d="M39.66,36.35l-7.62-0.5c-0.28-0.02-0.51-0.26-0.51-0.54l0,0c0.01-1.27-1.02-2.3-2.28-2.3h0
				c-0.57,0-0.86-0.69-0.47-1.1c2.07-2.15,3.5-3.99,4.41-5.64l0.01-0.01c0.36-0.65,1.06-1.04,1.81-1.01l5.13,0.3
				c1.49,0.07,2.69,1.22,2.85,2.69c0,0.01,0,0.03,0.01,0.04l0.71,3.38C44.25,34.26,42.31,36.51,39.66,36.35z"/>
			<path class="st1" d="M9.93,21.99c-0.01,0.27-0.23,0.49-0.51,0.48l-5.16-0.25c-1.99-0.1-3.3-2.13-2.56-3.98l1.26-3.16
				c0.44-1.11,1.51-1.83,2.7-1.83l7.71,0c0.4,0,0.62,0.45,0.39,0.77C11.62,16.96,10.01,19.31,9.93,21.99z"/>
			<path class="st1" d="M35.64,23.98L35.64,23.98c-1.02-0.05-1.81-0.88-1.83-1.9c-0.04-2.71-1.67-5.08-3.83-8.06
				c-0.23-0.32,0-0.77,0.39-0.77l3.68,0c1.23,0,2.33,0.78,2.74,1.94l1.74,4.92C39.22,22.05,37.71,24.08,35.64,23.98z"/>
			<path class="st2" d="M16.92,7.25L16.92,7.25C16.86,8,16.68,8.73,16.4,9.43c-0.26,0.65-0.63,1.53-1.12,2.06
				c-0.39,0.42-0.83,0.3-1.35,0.33c-1.14,0.05-2.28,0.1-3.42,0.14L10,11.98c-1.97,0.08-3.62-1.49-3.62-3.47V6.67
				c0-1.49,1.09-2.75,2.56-2.97l5.24-0.78c0.99-0.15,1.97,0.41,2.32,1.35C16.86,5.21,17,6.23,16.92,7.25z"/>
			<path class="st2" d="M31.68,10.89L29.19,11c-0.8,0.03-1.54-0.42-1.87-1.15v0c-1.96-4.22,0.42-7.15,2.29-8.66
				c0.69-0.56,1.72-0.47,2.27,0.24c0.16,0.2,0.29,0.43,0.4,0.68l1.97,4.77C35.01,8.74,33.69,10.8,31.68,10.89z"/>
		</g>
		<path class="st2" d="M16.46,2.41c0-0.02,0.01-0.04,0.02-0.05c0.19-0.45,1.1-0.41,1.48-0.44c0.78-0.05,1.57-0.13,2.35-0.22
			c2.52-0.26,5.04-0.59,7.56-0.88c1.08-0.13-0.63,1.62-0.85,1.87c-1.04,1.23-1.65,2.83-1.63,4.44c0.03,2.04,1.07,3.94,2.34,5.54
			c-2.92,1.37-5.92,2.59-9.04,3.38c-0.82,0.21-1.65,0.38-2.5,0.36c-0.49-0.01-1.06-0.14-1.3-0.57c-0.32-0.57,0.12-1.26,0.52-1.78
			c1.05-1.36,2.03-2.79,2.73-4.36c0.4-0.89,0.71-1.84,0.75-2.82c0.03-0.98-0.24-1.99-0.9-2.72C17.68,3.81,16.31,3.01,16.46,2.41z"/>
		<path class="st1" d="M33,23.2c-0.03-0.43-0.13-0.86-0.2-1.19c-0.2-1.01-0.54-1.98-0.97-2.92c-0.42-0.92-0.91-1.8-1.44-2.66
			c-0.48-0.79-0.94-1.57-1.63-2.2c-0.08-0.07-0.16-0.14-0.27-0.18c-0.38-0.13-0.92,0.31-1.23,0.47c-0.5,0.26-1,0.52-1.5,0.77
			c-0.96,0.48-1.94,0.93-2.94,1.32c-1.31,0.51-2.68,0.92-4.09,1.09c-1.29,0.15-2.84,0.21-3.99-0.46c-0.27-0.16-0.52-0.49-0.78-0.53
			c-0.06-0.01-0.11-0.01-0.17,0.02c-0.7,0.27-1.27,1.46-1.54,2.1c-0.27,0.65-0.43,1.35-0.46,2.05c-0.02,0.45-0.1,1.44,0.4,1.68
			c2.2,1.08,4.73,1.6,7.11,2.08c2.5,0.51,5.05,0.82,7.6,0.75c1.85-0.06,3.69-0.32,5.48-0.77c0.07-0.02,0.14-0.03,0.19-0.08
			C32.96,24.24,33.03,23.72,33,23.2z"/>
		<path class="st0" d="M30.73,27.74c0,0,0.12-0.13,0.12-0.13c0.09-0.1,0.16-0.21,0.21-0.33c0.42-1.03-1.06-0.57-1.5-0.48
			c-1.05,0.22-2.14,0.26-3.21,0.24c-2.59-0.03-5.17-0.32-7.7-0.86c-1.25-0.26-2.48-0.59-3.7-0.97c-0.63-0.19-1.25-0.4-1.86-0.63
			c-0.26-0.1-0.98-0.58-1.24-0.32c-0.3,0.31,0.85,1.88,1.04,2.2c0.68,1.12,1.43,2.2,2.24,3.23c0.75,0.95,1.61,1.76,1.91,2.98
			c0.06,0.26,0.02,0.54-0.14,0.75c-0.38,0.49-1.02,0.21-1.58,0.19c-0.35-0.01-0.73,0.1-0.92,0.43c-0.08,0.15-0.1,0.32-0.04,0.48
			c0.11,0.29,0.42,0.36,0.69,0.41c2.23,0.4,4.48,0.73,6.74,0.96c1.4,0.14,2.8,0.28,4.21,0.33c0.69,0.02,1.38,0.02,2.07-0.02
			c0.56-0.03,1.22-0.04,1.7-0.36c0.19-0.13,0.35-0.32,0.36-0.55c0.01-0.28-0.22-0.51-0.45-0.68c-0.37-0.28-0.78-0.51-1.21-0.69
			c-0.42-0.17-0.9-0.31-1.15-0.7c-0.19-0.3-0.2-0.68-0.1-1.02c0.26-0.89,0.99-1.63,1.6-2.29C29.47,29.21,30.09,28.47,30.73,27.74z"
			/>
	</g>
</g>
</svg>
