<?xml version="1.0" encoding="utf-8"?>
<!-- Generator: Adobe Illustrator 24.0.2, SVG Export Plug-In . SVG Version: 6.00 Build 0)  -->
<svg version="1.1" xmlns="http://www.w3.org/2000/svg" xmlns:xlink="http://www.w3.org/1999/xlink" x="0px" y="0px"
	 viewBox="0 0 20 20" style="enable-background:new 0 0 20 20;" xml:space="preserve">
<style type="text/css">
	.st0{display:none;}
	.st1{display:inline;}
</style>
<g id="Capa_1">
	<g>
		<path d="M18.44,19.5h-1.02c0-4.04-3.28-7.31-7.32-7.31s-7.32,3.28-7.32,7.31H1.76c0-4.6,3.73-8.34,8.34-8.34
			S18.44,14.9,18.44,19.5z"/>
		<path d="M10.1,0.5c-2.7,0-4.89,2.19-4.89,4.89s2.19,4.89,4.89,4.89s4.89-2.19,4.89-4.89S12.8,0.5,10.1,0.5z M10.1,9.38
			c-2.2,0-3.99-1.79-3.99-3.99S7.9,1.4,10.1,1.4s3.99,1.79,3.99,3.99S12.3,9.38,10.1,9.38z"/>
	</g>
</g>
<g id="Capa_3" class="st0">
	<path class="st1" d="M16.75,13.65l2.85-8.8H7.22v1h11.01l-2.2,6.8H6.47L4.6,3.04L0.98,1.57L0.6,2.5l3.12,1.27l1.92,9.89h0.78
		l-0.96,2.74h1.07c-0.15,0.27-0.24,0.59-0.24,0.92c0,1.06,0.86,1.92,1.92,1.92s1.92-0.86,1.92-1.92c0-0.33-0.09-0.65-0.24-0.92h2.47
		c-0.15,0.27-0.24,0.59-0.24,0.92c0,1.06,0.86,1.92,1.92,1.92s1.92-0.86,1.92-1.92c0-0.33-0.09-0.65-0.24-0.92h0.74v-1H6.87
		l0.61-1.74H16.75z M9.14,17.31c0,0.51-0.41,0.92-0.92,0.92s-0.92-0.41-0.92-0.92c0-0.51,0.41-0.92,0.92-0.92S9.14,16.81,9.14,17.31
		z M14.99,17.31c0,0.51-0.41,0.92-0.92,0.92c-0.51,0-0.92-0.41-0.92-0.92c0-0.51,0.41-0.92,0.92-0.92
		C14.57,16.39,14.99,16.81,14.99,17.31z"/>
</g>
<g id="Capa_2" class="st0">
	<g class="st1">
		<path d="M13.76,13.18c1.2-1.34,1.93-3.1,1.93-5.04c0-4.17-3.38-7.54-7.54-7.54S0.6,3.97,0.6,8.14s3.38,7.54,7.54,7.54
			c1.94,0,3.7-0.73,5.04-1.93l5.84,5.84l0.58-0.58L13.76,13.18z M8.14,14.87c-1.8,0-3.49-0.7-4.76-1.97
			c-1.27-1.27-1.97-2.96-1.97-4.76s0.7-3.49,1.97-4.76c1.27-1.27,2.96-1.97,4.76-1.97s3.49,0.7,4.76,1.97
			c1.27,1.27,1.97,2.96,1.97,4.76c0,1.66-0.6,3.23-1.69,4.46c-0.09,0.1-0.18,0.2-0.28,0.3c-0.1,0.1-0.2,0.19-0.3,0.28
			C11.38,14.27,9.81,14.87,8.14,14.87z"/>
	</g>
</g>
</svg>
