<svg id="Capa_1" data-name="Capa 1" xmlns="http://www.w3.org/2000/svg" viewBox="0 0 40 40"><defs><style>.cls-1{fill:#fff;}</style></defs><title>zoom +</title><g id="Capa_2" data-name="Capa 2"><path class="cls-1" d="M26.74,25.68a14.22,14.22,0,1,0-1.07,1.05L36.43,37.49l1.07-1.07ZM16.39,28.8A12.4,12.4,0,0,1,7.62,7.63a12.4,12.4,0,0,1,18.05,17c-.16.19-.33.37-.51.56l-.55.51A12.26,12.26,0,0,1,16.39,28.8Z"/></g><polygon class="cls-1" points="20.36 15.67 17.11 15.68 17.11 12.44 15.66 12.43 15.66 15.68 12.43 15.68 12.42 17.13 15.66 17.13 15.66 20.37 17.12 20.37 17.11 17.13 20.36 17.13 20.36 15.67"/></svg>